<mxfile host="Electron" modified="2025-03-09T22:55:20.139Z" agent="Mozilla/5.0 (X11; Linux x86_64) AppleWebKit/537.36 (KHTML, like Gecko) draw.io/24.6.4 Chrome/124.0.6367.207 Electron/30.0.6 Safari/537.36" etag="kEatEs3kj5v2Q2RSKCym" version="24.6.4" type="device">
  <diagram name="Page-1" id="Q2y9OdtFbIF-ZuR_Zk4G">
    <mxGraphModel dx="2116" dy="803" grid="1" gridSize="10" guides="1" tooltips="1" connect="1" arrows="1" fold="1" page="1" pageScale="1" pageWidth="850" pageHeight="1100" math="0" shadow="0">
      <root>
        <mxCell id="0" />
        <mxCell id="1" parent="0" />
        <mxCell id="3yqVFi_t0Vpzy8jQwV9_-9" value="Github Upstream Repository" style="rounded=1;whiteSpace=wrap;html=1;arcSize=10;verticalAlign=top;" vertex="1" parent="1">
          <mxGeometry x="200" y="90" width="560" height="170" as="geometry" />
        </mxCell>
        <mxCell id="3yqVFi_t0Vpzy8jQwV9_-8" value="Local Repository" style="rounded=1;whiteSpace=wrap;html=1;arcSize=10;verticalAlign=bottom;" vertex="1" parent="1">
          <mxGeometry x="200" y="320" width="560" height="190" as="geometry" />
        </mxCell>
        <mxCell id="3yqVFi_t0Vpzy8jQwV9_-3" style="edgeStyle=orthogonalEdgeStyle;rounded=1;orthogonalLoop=1;jettySize=auto;html=1;curved=0;entryX=0.25;entryY=1;entryDx=0;entryDy=0;" edge="1" parent="1" source="3yqVFi_t0Vpzy8jQwV9_-1" target="3yqVFi_t0Vpzy8jQwV9_-2">
          <mxGeometry relative="1" as="geometry">
            <Array as="points">
              <mxPoint x="640" y="450" />
              <mxPoint x="290" y="450" />
            </Array>
          </mxGeometry>
        </mxCell>
        <mxCell id="3yqVFi_t0Vpzy8jQwV9_-4" value="Static distribution release&lt;div&gt;by committing to Submodule&lt;/div&gt;" style="edgeLabel;html=1;align=center;verticalAlign=middle;resizable=0;points=[];" vertex="1" connectable="0" parent="3yqVFi_t0Vpzy8jQwV9_-3">
          <mxGeometry x="0.027" y="1" relative="1" as="geometry">
            <mxPoint x="93" as="offset" />
          </mxGeometry>
        </mxCell>
        <mxCell id="3yqVFi_t0Vpzy8jQwV9_-11" style="edgeStyle=orthogonalEdgeStyle;rounded=0;orthogonalLoop=1;jettySize=auto;html=1;startArrow=classic;startFill=1;" edge="1" parent="1" source="3yqVFi_t0Vpzy8jQwV9_-1" target="3yqVFi_t0Vpzy8jQwV9_-10">
          <mxGeometry relative="1" as="geometry" />
        </mxCell>
        <mxCell id="3yqVFi_t0Vpzy8jQwV9_-1" value="Portfolio&lt;div&gt;Repository&lt;/div&gt;" style="rounded=1;whiteSpace=wrap;html=1;" vertex="1" parent="1">
          <mxGeometry x="580" y="360" width="120" height="60" as="geometry" />
        </mxCell>
        <mxCell id="3yqVFi_t0Vpzy8jQwV9_-5" style="edgeStyle=orthogonalEdgeStyle;rounded=0;orthogonalLoop=1;jettySize=auto;html=1;dashed=1;" edge="1" parent="1" source="3yqVFi_t0Vpzy8jQwV9_-2" target="3yqVFi_t0Vpzy8jQwV9_-1">
          <mxGeometry relative="1" as="geometry">
            <Array as="points">
              <mxPoint x="350" y="390" />
            </Array>
          </mxGeometry>
        </mxCell>
        <mxCell id="3yqVFi_t0Vpzy8jQwV9_-6" value="Git Submodule&lt;div&gt;to Portfolio&lt;/div&gt;" style="edgeLabel;html=1;align=center;verticalAlign=middle;resizable=0;points=[];" vertex="1" connectable="0" parent="3yqVFi_t0Vpzy8jQwV9_-5">
          <mxGeometry x="-0.07" y="1" relative="1" as="geometry">
            <mxPoint x="89" y="1" as="offset" />
          </mxGeometry>
        </mxCell>
        <mxCell id="3yqVFi_t0Vpzy8jQwV9_-2" value="uoehw.github.io&lt;div&gt;repository&lt;/div&gt;" style="rounded=1;whiteSpace=wrap;html=1;" vertex="1" parent="1">
          <mxGeometry x="260" y="150" width="120" height="60" as="geometry" />
        </mxCell>
        <mxCell id="3yqVFi_t0Vpzy8jQwV9_-10" value="Portfolio&lt;div&gt;Repository&lt;/div&gt;" style="rounded=1;whiteSpace=wrap;html=1;" vertex="1" parent="1">
          <mxGeometry x="580" y="150" width="120" height="60" as="geometry" />
        </mxCell>
        <mxCell id="3yqVFi_t0Vpzy8jQwV9_-13" style="edgeStyle=orthogonalEdgeStyle;rounded=0;orthogonalLoop=1;jettySize=auto;html=1;entryX=0;entryY=0.5;entryDx=0;entryDy=0;" edge="1" parent="1" source="3yqVFi_t0Vpzy8jQwV9_-12" target="3yqVFi_t0Vpzy8jQwV9_-2">
          <mxGeometry relative="1" as="geometry" />
        </mxCell>
        <mxCell id="3yqVFi_t0Vpzy8jQwV9_-14" value="Visitor view website&lt;div&gt;uoehw.github.io&lt;/div&gt;" style="edgeLabel;html=1;align=center;verticalAlign=middle;resizable=0;points=[];" vertex="1" connectable="0" parent="3yqVFi_t0Vpzy8jQwV9_-13">
          <mxGeometry x="-0.3368" y="-1" relative="1" as="geometry">
            <mxPoint as="offset" />
          </mxGeometry>
        </mxCell>
        <mxCell id="3yqVFi_t0Vpzy8jQwV9_-12" value="Visitor" style="shape=umlActor;verticalLabelPosition=bottom;verticalAlign=top;html=1;outlineConnect=0;" vertex="1" parent="1">
          <mxGeometry x="-10" y="150" width="30" height="60" as="geometry" />
        </mxCell>
      </root>
    </mxGraphModel>
  </diagram>
</mxfile>
